<svg width="64" height="64" viewBox="0 0 64 64" fill="none" xmlns="http://www.w3.org/2000/svg">
<path d="M0 15C0 6.71573 6.71573 0 15 0H49C57.2843 0 64 6.71573 64 15V49C64 57.2843 57.2843 64 49 64H15C6.71573 64 0 57.2843 0 49V15Z" fill="#FFBB00"/>
<path d="M25 18.2344L20.9219 17.2734V14.6484L30.0391 14.3906H35.0781C38.625 14.3906 41.3516 15.2734 43.2578 17.0391C45.1641 18.8047 46.1172 21.2031 46.1172 24.2344C46.1172 27.9219 44.9844 30.7266 42.7188 32.6484C40.4688 34.5703 37.2812 35.5312 33.1562 35.5312H30.0391V44.1562L34.1172 45.1172V48H20.9219V45.1172L25 44.1562V18.2344ZM33.1562 31.6875C35.7812 31.6875 37.7578 31.1094 39.0859 29.9531C40.4141 28.7969 41.0781 27.1328 41.0781 24.9609C41.0781 22.9766 40.5312 21.3594 39.4375 20.1094C38.3594 18.8594 36.8281 18.2344 34.8438 18.2344H30.0391V31.6875H33.1562Z" fill="white"/>
</svg>
